PathFileType	4	(X/Y/Z)	D:\TRACE\spot_10-12-23\spot_body_motion_3_3-v60.trc
DataRate	CameraRate	NumFrames	NumMarkers	Units	OrigDataRate	OrigDataStartFrame	OrigNumFrames
100.00	100.00	      25	9	mm	100.00	1	      7000
Frame#	Time	front left toe			Front right toe			aft left toe			aft right toe			Arm			FL body			FR body			AL Body			AR Body			
		X1	Y1	Z1	X2	Y2	Z2	X3	Y3	Z3	X4	Y4	Z4	X5	Y5	Z5	X6	Y6	Z6	X7	Y7	Z7	X8	Y8	Z8	X9	Y9	Z9	

1	0.000	-253.16310	3.16333	156.18616	237.14336	26.75339	21.29062	-225.01486	-82.91566	635.50336	232.56590	-89.88279	629.32477	4.25371	828.58502	3.19829	-76.52879	564.47479	-19.00659	75.66934	573.65356	-24.46614	-46.41293	426.17307	853.11713	103.74970	428.12994	850.19611	
2	0.010	-253.23438	2.99106	156.25882	237.09200	26.81248	21.23517	-225.01889	-82.99139	635.49060	232.60274	-89.89029	629.27618	3.64642	828.41589	2.81504	-77.07516	564.22504	-19.34901	75.23471	573.09747	-24.36184	-47.13805	426.18161	852.91321	103.14888	428.23178	849.75751	
3	0.020	-253.24982	3.03125	156.21295	236.97960	26.87439	21.13164	-225.04465	-82.99793	635.49432	232.55469	-89.84872	629.28534	2.88984	828.33087	2.28294	-77.82053	564.20563	-19.85227	74.82148	572.89862	-24.62228	-47.92133	426.37543	852.43323	102.19903	428.40631	849.21008	
4	0.030	-253.24841	3.06458	156.18008	236.91373	26.94369	21.06122	-225.07526	-82.91261	635.47192	232.50017	-89.83254	629.28748	2.32322	828.26642	1.78534	-78.54518	564.21313	-20.35153	73.00217	573.40265	-25.66591	-48.80747	428.00500	852.85443	101.62178	428.23376	849.31305	
5	0.040	-253.55386	3.23710	156.03090	236.86543	26.96644	21.07143	-225.09930	-82.89285	635.45624	232.41003	-89.79545	629.31384	1.56188	828.17096	1.30424	-79.19514	564.14264	-20.78485	72.89260	573.07452	-26.13981	-49.73771	427.86591	852.04791	100.52827	428.31317	848.92267	
6	0.050	-253.60205	3.17802	156.03792	236.11320	26.62409	20.91748	-225.12047	-83.02446	635.44495	232.34003	-89.77073	629.34583	0.99203	828.09705	0.76423	-79.87023	563.89349	-21.14154	72.40791	572.95343	-26.34687	-50.52689	427.94168	851.56976	99.83627	428.44699	848.45172	
7	0.060	-253.65503	3.07616	156.03101	236.71964	27.10806	21.07673	-225.16188	-83.16576	635.44354	232.35512	-89.76620	629.29688	0.16664	827.97607	0.23515	-80.70225	563.67786	-21.78475	71.64583	572.77002	-26.99300	-51.69965	428.07806	850.89844	98.95276	428.42621	847.87061	
8	0.070	-253.74779	3.03175	155.97659	236.06236	26.72539	20.87973	-225.20615	-83.19058	635.40631	232.36977	-89.72354	629.30573	-0.16987	827.64319	-0.25434	-81.31068	563.54236	-22.13446	70.69355	572.26086	-27.08023	-52.74666	428.18076	850.45221	98.18665	429.79938	848.87067	
9	0.080	-253.74591	3.06181	155.98302	235.99132	26.78300	20.85793	-225.22209	-83.16113	635.41058	232.31346	-89.67298	629.32507	-0.85371	827.55298	-0.97728	-82.27248	563.59723	-22.85453	70.09373	572.12543	-27.59793	-53.15191	427.05981	849.76147	98.86885	430.20718	849.38123	
10	0.090	-253.75609	3.03228	155.93077	235.87206	27.03962	20.78866	-225.27087	-83.18805	635.39722	232.27574	-89.63681	629.34888	-1.58937	827.42072	-1.60857	-83.11829	563.69281	-23.31767	68.95567	572.40521	-28.95006	-53.63000	426.98297	849.51062	96.63980	429.33844	846.90125	
11	0.100	-253.85321	2.96302	155.92543	235.85637	27.00607	20.74176	-225.35410	-83.24696	635.40167	232.25722	-89.57931	629.32275	-2.17764	827.32361	-2.10951	-83.93842	563.46204	-23.92305	68.16604	572.32172	-29.38059	-55.58080	427.63937	849.21405	95.57854	429.36581	846.44305	
12	0.110	-253.93921	2.90158	155.86623	235.79776	27.04117	20.74647	-225.41902	-83.36369	635.35468	232.19008	-89.43370	629.25940	-2.85446	827.14294	-2.83196	-84.84459	563.18665	-24.42236	67.68554	571.63245	-29.69888	-55.71853	427.52124	848.42053	94.57765	429.56335	846.61780	
13	0.120	-253.94917	2.78387	155.83426	235.64656	27.17963	20.69913	-225.54247	-83.47249	635.28265	232.17068	-89.37601	629.21405	-3.47056	826.93512	-3.51346	-85.70797	562.99042	-24.90002	66.67933	571.08673	-29.91055	-56.77589	427.57846	847.90845	93.32566	428.61960	844.64319	
14	0.130	-254.04704	2.81285	155.77910	235.63904	27.29907	20.63956	-225.62576	-83.52327	635.26776	232.06935	-89.25849	629.16821	-4.40000	826.71338	-4.23641	-86.86127	563.14734	-25.74888	65.78665	570.85498	-30.35850	-57.93013	427.53348	847.10223	92.49280	428.41443	844.41034	
15	0.140	-254.09319	2.83409	155.75172	235.56647	27.22544	20.85725	-225.65219	-83.50474	635.24023	232.00555	-89.18632	629.14984	-4.94550	826.61945	-4.86702	-87.74411	563.04309	-26.19643	64.46996	571.08881	-31.87580	-58.55759	427.46732	846.47858	92.69941	430.27158	846.61780	
16	0.150	-254.11655	2.74052	155.76399	235.46851	27.28488	20.85557	-225.73222	-83.52220	635.22290	231.88251	-89.07479	629.13141	-5.93128	826.56317	-5.63915	-88.87843	563.08496	-26.94304	63.43735	571.10791	-32.16261	-60.47341	428.02850	845.97430	90.47645	428.37415	843.09521	
17	0.160	-254.15344	2.66198	155.77339	235.32191	27.36190	20.82099	-225.80775	-83.57982	635.20422	231.84700	-89.03696	629.09833	-6.74274	826.46619	-6.23530	-89.91199	563.04578	-27.56917	62.42820	570.57434	-32.59975	-61.56910	428.02985	845.53394	89.28471	429.36960	843.53271	
18	0.170	-254.15596	2.57389	155.74609	235.21268	27.42146	20.82039	-225.82492	-83.66843	635.18298	231.81494	-89.00107	629.07849	-7.57927	826.41876	-6.98357	-91.03497	562.97839	-28.43904	61.17305	570.70850	-33.82124	-62.85454	427.80905	844.95911	88.79228	428.59537	842.42365	
19	0.180	-254.20628	2.48936	155.72701	235.08661	27.47953	20.76956	-225.81320	-83.73616	635.13708	231.77946	-88.94824	629.04578	-8.34567	826.27972	-7.60154	-92.10500	562.82904	-28.99873	59.95356	570.46014	-34.58510	-63.89798	427.51083	843.98157	87.44688	427.88702	841.36670	
20	0.190	-254.32785	2.47024	155.63701	235.02869	27.75566	20.89757	-225.90060	-83.77216	635.10760	231.72444	-88.84058	628.93872	-9.97947	826.31915	-8.67136	-93.32623	562.76355	-30.00734	59.14096	569.99347	-34.97158	-64.95017	427.58264	843.02991	86.39256	428.52008	841.06110	
21	0.200	-254.37990	2.41160	155.58330	234.99071	27.77908	20.83587	-225.99490	-83.74178	635.08282	231.61334	-88.74551	628.99298	-10.81869	826.07373	-9.41583	-94.65038	562.78229	-30.90966	57.69342	570.08386	-36.24754	-65.65086	427.17383	841.65686	85.11310	428.26566	840.18793	
22	0.210	-254.53990	2.28144	155.50209	234.92711	27.81869	20.79317	-226.07411	-83.78424	635.05890	231.55614	-88.66146	628.93201	-12.00417	826.00543	-10.42630	-95.84289	562.87604	-31.76352	55.70816	570.46173	-37.20345	-67.67628	427.49121	841.35651	83.59700	428.11322	839.09515	
23	0.220	-254.59996	2.18498	155.51176	234.84454	27.85729	20.75666	-226.11861	-83.86674	635.08423	231.51254	-88.55389	628.96625	-13.26139	825.81378	-11.47944	-97.19305	562.55695	-32.74968	55.12244	569.53021	-37.77903	-69.48820	428.07120	840.50513	82.20909	426.77844	837.09631	
24	0.230	-254.67786	2.06113	155.44341	234.86151	27.86004	20.73707	-226.06989	-84.02509	635.08661	231.48912	-88.51537	628.96167	-14.31450	825.55212	-12.20509	-98.72115	562.37567	-33.74438	53.51259	569.56866	-39.20517	-70.09682	427.02628	839.22589	80.90884	426.71967	836.16516	
25	0.240	-254.79057	2.09011	155.43532	234.82324	27.88615	20.73483	-226.08698	-84.08724	635.09015	231.45038	-88.46252	628.96130	-15.63523	825.49335	-13.54048	-99.95113	562.33173	-34.65216	52.31635	569.26532	-39.94869	-71.85950	427.69427	838.45416	79.19333	426.49203	834.92798	
